<svg xmlns="http://www.w3.org/2000/svg" viewBox="0 0 512 512" width="512" height="512">
  <defs>
    <linearGradient id="bpsGrad" x1="0%" y1="0%" x2="100%" y2="100%">
      <stop offset="0%" stop-color="#0093DD" />
      <stop offset="100%" stop-color="#007bbd" />
    </linearGradient>
    <filter id="dropShadow" x="-10%" y="-10%" width="120%" height="120%">
      <feDropShadow dx="0" dy="16" stdDeviation="20" flood-color="#002D4A" flood-opacity="0.35"/>
    </filter>
  </defs>
  
  <!-- Rounded Base Background -->
  <rect width="512" height="512" rx="118" fill="url(#bpsGrad)"/>
  
  <!-- Cloud Bubble Symbol (Scaled from 32x32 to 512x512) -->
  <g filter="url(#dropShadow)" transform="matrix(12.5 0 0 12.5 56 56)">
    <!-- Cloud Bubble Outline & Translucent Fill -->
    <path d="M9.5 23.5H22C25.5899 23.5 28.5 20.5899 28.5 17C28.5 13.5683 25.8366 10.7573 22.4668 10.521C21.7248 6.78652 18.4414 4 14.5 4C10.0526 4 6.38676 7.23432 5.67978 11.5173C3.0189 12.3789 1 14.9455 1 18C1 21.3137 3.68629 24 7 24L5 28L10.5 24.5L9.5 23.5Z" 
          fill="#FFFFFF" fill-opacity="0.22" stroke="#FFFFFF" stroke-width="1.8" stroke-linejoin="round" />
    
    <!-- Pillar 1: Orange #EB891B -->
    <rect x="9.5" y="14.5" width="2.4" height="5.5" rx="1.2" fill="#EB891B" />
    
    <!-- Pillar 2: White #FFFFFF -->
    <rect x="13.5" y="11.5" width="2.4" height="8.5" rx="1.2" fill="#FFFFFF" />
    
    <!-- Pillar 3: Green #68B92E -->
    <rect x="17.5" y="13" width="2.4" height="7" rx="1.2" fill="#68B92E" />
    
    <!-- AI Sparkle Star: Yellow/Orange -->
    <path d="M24 5L24.8 7.2L27 8L24.8 8.8L24 11L23.2 8.8L21 8L23.2 7.2L24 5Z" fill="#FDE047" stroke="#EB891B" stroke-width="0.3"/>
  </g>
</svg>